<mxfile host="app.diagrams.net" modified="2024-05-30T12:29:31.470Z" agent="Mozilla/5.0 (Windows NT 10.0; Win64; x64) AppleWebKit/537.36 (KHTML, like Gecko) Chrome/125.0.0.0 Safari/537.36" etag="GiVpVTK1bXnfJGynvhuD" version="24.4.10" type="github">
  <diagram name="Pagina-1" id="h_YUGkcHW8ww24Ley-Mb">
    <mxGraphModel dx="1647" dy="877" grid="1" gridSize="10" guides="1" tooltips="1" connect="1" arrows="1" fold="1" page="1" pageScale="1" pageWidth="1654" pageHeight="1169" math="0" shadow="0">
      <root>
        <mxCell id="0" />
        <mxCell id="1" parent="0" />
        <mxCell id="rQ-lP0VY4Xicwzm7i3NF-15" value="" style="whiteSpace=wrap;html=1;aspect=fixed;" parent="1" vertex="1">
          <mxGeometry x="1050" y="100" width="157.69" height="157.69" as="geometry" />
        </mxCell>
        <mxCell id="rQ-lP0VY4Xicwzm7i3NF-11" value="" style="whiteSpace=wrap;html=1;aspect=fixed;" parent="1" vertex="1">
          <mxGeometry x="882.31" y="100" width="157.69" height="157.69" as="geometry" />
        </mxCell>
        <mxCell id="rQ-lP0VY4Xicwzm7i3NF-5" value="" style="whiteSpace=wrap;html=1;aspect=fixed;" parent="1" vertex="1">
          <mxGeometry x="710" y="100" width="160" height="160" as="geometry" />
        </mxCell>
        <mxCell id="rQ-lP0VY4Xicwzm7i3NF-8" value="" style="edgeStyle=orthogonalEdgeStyle;rounded=0;orthogonalLoop=1;jettySize=auto;html=1;" parent="1" source="rQ-lP0VY4Xicwzm7i3NF-1" target="rQ-lP0VY4Xicwzm7i3NF-4" edge="1">
          <mxGeometry relative="1" as="geometry" />
        </mxCell>
        <mxCell id="rQ-lP0VY4Xicwzm7i3NF-1" value="" style="image;html=1;image=img/lib/clip_art/networking/Router_Icon_128x128.png" parent="1" vertex="1">
          <mxGeometry x="800" y="120" width="40" height="50" as="geometry" />
        </mxCell>
        <mxCell id="rQ-lP0VY4Xicwzm7i3NF-2" value="" style="image;points=[];aspect=fixed;html=1;align=center;shadow=0;dashed=0;image=img/lib/allied_telesis/switch/Switch_24_port_L2.svg;" parent="1" vertex="1">
          <mxGeometry x="740" y="190" width="42.31" height="29" as="geometry" />
        </mxCell>
        <mxCell id="rQ-lP0VY4Xicwzm7i3NF-9" value="" style="edgeStyle=orthogonalEdgeStyle;rounded=0;orthogonalLoop=1;jettySize=auto;html=1;" parent="1" source="rQ-lP0VY4Xicwzm7i3NF-4" target="rQ-lP0VY4Xicwzm7i3NF-2" edge="1">
          <mxGeometry relative="1" as="geometry" />
        </mxCell>
        <mxCell id="rQ-lP0VY4Xicwzm7i3NF-14" value="" style="edgeStyle=orthogonalEdgeStyle;rounded=0;orthogonalLoop=1;jettySize=auto;html=1;" parent="1" source="rQ-lP0VY4Xicwzm7i3NF-4" target="rQ-lP0VY4Xicwzm7i3NF-13" edge="1">
          <mxGeometry relative="1" as="geometry" />
        </mxCell>
        <mxCell id="rQ-lP0VY4Xicwzm7i3NF-4" value="" style="image;points=[];aspect=fixed;html=1;align=center;shadow=0;dashed=0;image=img/lib/allied_telesis/switch/Switch_24_port_L2.svg;" parent="1" vertex="1">
          <mxGeometry x="800" y="185.5" width="42.31" height="29" as="geometry" />
        </mxCell>
        <mxCell id="rQ-lP0VY4Xicwzm7i3NF-7" value="A103" style="text;html=1;align=center;verticalAlign=middle;whiteSpace=wrap;rounded=0;" parent="1" vertex="1">
          <mxGeometry x="750" y="60" width="100" height="30" as="geometry" />
        </mxCell>
        <mxCell id="rQ-lP0VY4Xicwzm7i3NF-12" value="B001" style="text;html=1;align=center;verticalAlign=middle;whiteSpace=wrap;rounded=0;" parent="1" vertex="1">
          <mxGeometry x="920" y="60" width="100" height="30" as="geometry" />
        </mxCell>
        <mxCell id="rQ-lP0VY4Xicwzm7i3NF-13" value="" style="image;points=[];aspect=fixed;html=1;align=center;shadow=0;dashed=0;image=img/lib/allied_telesis/switch/Switch_24_port_L2.svg;" parent="1" vertex="1">
          <mxGeometry x="920" y="185.5" width="42.31" height="29" as="geometry" />
        </mxCell>
        <mxCell id="rQ-lP0VY4Xicwzm7i3NF-16" value="Container" style="text;html=1;align=center;verticalAlign=middle;whiteSpace=wrap;rounded=0;" parent="1" vertex="1">
          <mxGeometry x="1080" y="60" width="100" height="30" as="geometry" />
        </mxCell>
        <mxCell id="rQ-lP0VY4Xicwzm7i3NF-22" value="" style="edgeStyle=orthogonalEdgeStyle;rounded=0;orthogonalLoop=1;jettySize=auto;html=1;" parent="1" source="rQ-lP0VY4Xicwzm7i3NF-18" target="rQ-lP0VY4Xicwzm7i3NF-13" edge="1">
          <mxGeometry relative="1" as="geometry" />
        </mxCell>
        <mxCell id="rQ-lP0VY4Xicwzm7i3NF-18" value="container aziz" style="html=1;strokeWidth=1;shadow=0;dashed=0;shape=mxgraph.ios7.misc.wifi;fillColor=#007AFF;strokeColor=none;buttonText=;strokeColor2=#222222;fontColor=#222222;fontSize=8;verticalLabelPosition=bottom;verticalAlign=top;align=center;sketch=0;" parent="1" vertex="1">
          <mxGeometry x="1120" y="280" width="40" height="40" as="geometry" />
        </mxCell>
        <mxCell id="rQ-lP0VY4Xicwzm7i3NF-25" value="" style="edgeStyle=none;rounded=0;orthogonalLoop=1;jettySize=auto;html=1;" parent="1" source="rQ-lP0VY4Xicwzm7i3NF-21" target="rQ-lP0VY4Xicwzm7i3NF-13" edge="1">
          <mxGeometry relative="1" as="geometry" />
        </mxCell>
        <mxCell id="rQ-lP0VY4Xicwzm7i3NF-21" value="container 6LB" style="html=1;strokeWidth=1;shadow=0;dashed=0;shape=mxgraph.ios7.misc.wifi;fillColor=#007AFF;strokeColor=none;buttonText=;strokeColor2=#222222;fontColor=#222222;fontSize=8;verticalLabelPosition=bottom;verticalAlign=top;align=center;sketch=0;" parent="1" vertex="1">
          <mxGeometry x="1110" y="190" width="40" height="40" as="geometry" />
        </mxCell>
        <mxCell id="rQ-lP0VY4Xicwzm7i3NF-24" value="" style="edgeStyle=none;rounded=0;orthogonalLoop=1;jettySize=auto;html=1;" parent="1" source="rQ-lP0VY4Xicwzm7i3NF-23" target="rQ-lP0VY4Xicwzm7i3NF-13" edge="1">
          <mxGeometry relative="1" as="geometry" />
        </mxCell>
        <mxCell id="rQ-lP0VY4Xicwzm7i3NF-23" value="containre 5LB" style="html=1;strokeWidth=1;shadow=0;dashed=0;shape=mxgraph.ios7.misc.wifi;fillColor=#007AFF;strokeColor=none;buttonText=;strokeColor2=#222222;fontColor=#222222;fontSize=8;verticalLabelPosition=bottom;verticalAlign=top;align=center;sketch=0;" parent="1" vertex="1">
          <mxGeometry x="1110" y="120" width="40" height="40" as="geometry" />
        </mxCell>
        <mxCell id="rQ-lP0VY4Xicwzm7i3NF-39" value="" style="edgeStyle=none;rounded=0;orthogonalLoop=1;jettySize=auto;html=1;" parent="1" source="rQ-lP0VY4Xicwzm7i3NF-26" target="rQ-lP0VY4Xicwzm7i3NF-13" edge="1">
          <mxGeometry relative="1" as="geometry">
            <mxPoint x="839" y="260" as="targetPoint" />
          </mxGeometry>
        </mxCell>
        <mxCell id="rQ-lP0VY4Xicwzm7i3NF-26" value="B101" style="html=1;strokeWidth=1;shadow=0;dashed=0;shape=mxgraph.ios7.misc.wifi;fillColor=#007AFF;strokeColor=none;buttonText=;strokeColor2=#222222;fontColor=#222222;fontSize=8;verticalLabelPosition=bottom;verticalAlign=top;align=center;sketch=0;" parent="1" vertex="1">
          <mxGeometry x="920" y="340" width="40" height="40" as="geometry" />
        </mxCell>
        <mxCell id="rQ-lP0VY4Xicwzm7i3NF-47" value="" style="edgeStyle=none;rounded=0;orthogonalLoop=1;jettySize=auto;html=1;" parent="1" source="rQ-lP0VY4Xicwzm7i3NF-27" target="rQ-lP0VY4Xicwzm7i3NF-4" edge="1">
          <mxGeometry relative="1" as="geometry" />
        </mxCell>
        <mxCell id="rQ-lP0VY4Xicwzm7i3NF-27" value="Gang A005" style="html=1;strokeWidth=1;shadow=0;dashed=0;shape=mxgraph.ios7.misc.wifi;fillColor=#007AFF;strokeColor=none;buttonText=;strokeColor2=#222222;fontColor=#222222;fontSize=8;verticalLabelPosition=bottom;verticalAlign=top;align=center;sketch=0;" parent="1" vertex="1">
          <mxGeometry x="730" y="340" width="40" height="40" as="geometry" />
        </mxCell>
        <mxCell id="rQ-lP0VY4Xicwzm7i3NF-46" value="" style="edgeStyle=none;rounded=0;orthogonalLoop=1;jettySize=auto;html=1;" parent="1" source="rQ-lP0VY4Xicwzm7i3NF-28" edge="1">
          <mxGeometry relative="1" as="geometry">
            <mxPoint x="820" y="220" as="targetPoint" />
          </mxGeometry>
        </mxCell>
        <mxCell id="rQ-lP0VY4Xicwzm7i3NF-28" value="A01" style="html=1;strokeWidth=1;shadow=0;dashed=0;shape=mxgraph.ios7.misc.wifi;fillColor=#007AFF;strokeColor=none;buttonText=;strokeColor2=#222222;fontColor=#222222;fontSize=8;verticalLabelPosition=bottom;verticalAlign=top;align=center;sketch=0;" parent="1" vertex="1">
          <mxGeometry x="710" y="270" width="40" height="40" as="geometry" />
        </mxCell>
        <mxCell id="rQ-lP0VY4Xicwzm7i3NF-41" value="" style="edgeStyle=none;rounded=0;orthogonalLoop=1;jettySize=auto;html=1;" parent="1" source="rQ-lP0VY4Xicwzm7i3NF-29" target="rQ-lP0VY4Xicwzm7i3NF-13" edge="1">
          <mxGeometry relative="1" as="geometry" />
        </mxCell>
        <mxCell id="rQ-lP0VY4Xicwzm7i3NF-29" value="Refter" style="html=1;strokeWidth=1;shadow=0;dashed=0;shape=mxgraph.ios7.misc.wifi;fillColor=#007AFF;strokeColor=none;buttonText=;strokeColor2=#222222;fontColor=#222222;fontSize=8;verticalLabelPosition=bottom;verticalAlign=top;align=center;sketch=0;" parent="1" vertex="1">
          <mxGeometry x="1100" y="340" width="40" height="40" as="geometry" />
        </mxCell>
        <mxCell id="rQ-lP0VY4Xicwzm7i3NF-49" value="" style="edgeStyle=none;rounded=0;orthogonalLoop=1;jettySize=auto;html=1;" parent="1" source="rQ-lP0VY4Xicwzm7i3NF-30" target="rQ-lP0VY4Xicwzm7i3NF-4" edge="1">
          <mxGeometry relative="1" as="geometry" />
        </mxCell>
        <mxCell id="rQ-lP0VY4Xicwzm7i3NF-30" value="Secretariaat" style="html=1;strokeWidth=1;shadow=0;dashed=0;shape=mxgraph.ios7.misc.wifi;fillColor=#007AFF;strokeColor=none;buttonText=;strokeColor2=#222222;fontColor=#222222;fontSize=8;verticalLabelPosition=bottom;verticalAlign=top;align=center;sketch=0;" parent="1" vertex="1">
          <mxGeometry x="670" y="390" width="40" height="40" as="geometry" />
        </mxCell>
        <mxCell id="rQ-lP0VY4Xicwzm7i3NF-48" value="" style="edgeStyle=none;rounded=0;orthogonalLoop=1;jettySize=auto;html=1;" parent="1" source="rQ-lP0VY4Xicwzm7i3NF-31" target="rQ-lP0VY4Xicwzm7i3NF-4" edge="1">
          <mxGeometry relative="1" as="geometry" />
        </mxCell>
        <mxCell id="rQ-lP0VY4Xicwzm7i3NF-31" value="A009" style="html=1;strokeWidth=1;shadow=0;dashed=0;shape=mxgraph.ios7.misc.wifi;fillColor=#007AFF;strokeColor=none;buttonText=;strokeColor2=#222222;fontColor=#222222;fontSize=8;verticalLabelPosition=bottom;verticalAlign=top;align=center;sketch=0;" parent="1" vertex="1">
          <mxGeometry x="750" y="390" width="40" height="40" as="geometry" />
        </mxCell>
        <mxCell id="rQ-lP0VY4Xicwzm7i3NF-40" value="" style="edgeStyle=none;rounded=0;orthogonalLoop=1;jettySize=auto;html=1;entryX=0.564;entryY=0.996;entryDx=0;entryDy=0;entryPerimeter=0;" parent="1" source="rQ-lP0VY4Xicwzm7i3NF-32" target="rQ-lP0VY4Xicwzm7i3NF-13" edge="1">
          <mxGeometry relative="1" as="geometry" />
        </mxCell>
        <mxCell id="rQ-lP0VY4Xicwzm7i3NF-32" value="Plusklas" style="html=1;strokeWidth=1;shadow=0;dashed=0;shape=mxgraph.ios7.misc.wifi;fillColor=#007AFF;strokeColor=none;buttonText=;strokeColor2=#222222;fontColor=#222222;fontSize=8;verticalLabelPosition=bottom;verticalAlign=top;align=center;sketch=0;" parent="1" vertex="1">
          <mxGeometry x="1040" y="340" width="40" height="40" as="geometry" />
        </mxCell>
        <mxCell id="rQ-lP0VY4Xicwzm7i3NF-43" value="" style="edgeStyle=none;rounded=0;orthogonalLoop=1;jettySize=auto;html=1;entryX=0.473;entryY=0.845;entryDx=0;entryDy=0;entryPerimeter=0;" parent="1" source="rQ-lP0VY4Xicwzm7i3NF-33" target="rQ-lP0VY4Xicwzm7i3NF-13" edge="1">
          <mxGeometry relative="1" as="geometry" />
        </mxCell>
        <mxCell id="rQ-lP0VY4Xicwzm7i3NF-33" value="B00" style="html=1;strokeWidth=1;shadow=0;dashed=0;shape=mxgraph.ios7.misc.wifi;fillColor=#007AFF;strokeColor=none;buttonText=;strokeColor2=#222222;fontColor=#222222;fontSize=8;verticalLabelPosition=bottom;verticalAlign=top;align=center;sketch=0;" parent="1" vertex="1">
          <mxGeometry x="870" y="400" width="40" height="40" as="geometry" />
        </mxCell>
        <mxCell id="rQ-lP0VY4Xicwzm7i3NF-51" value="" style="edgeStyle=none;rounded=0;orthogonalLoop=1;jettySize=auto;html=1;" parent="1" source="rQ-lP0VY4Xicwzm7i3NF-34" target="rQ-lP0VY4Xicwzm7i3NF-4" edge="1">
          <mxGeometry relative="1" as="geometry" />
        </mxCell>
        <mxCell id="rQ-lP0VY4Xicwzm7i3NF-34" value="Gang A109" style="html=1;strokeWidth=1;shadow=0;dashed=0;shape=mxgraph.ios7.misc.wifi;fillColor=#007AFF;strokeColor=none;buttonText=;strokeColor2=#222222;fontColor=#222222;fontSize=8;verticalLabelPosition=bottom;verticalAlign=top;align=center;sketch=0;" parent="1" vertex="1">
          <mxGeometry x="842.31" y="300" width="40" height="40" as="geometry" />
        </mxCell>
        <mxCell id="rQ-lP0VY4Xicwzm7i3NF-50" value="" style="edgeStyle=none;rounded=0;orthogonalLoop=1;jettySize=auto;html=1;entryX=0.393;entryY=1.076;entryDx=0;entryDy=0;entryPerimeter=0;" parent="1" source="rQ-lP0VY4Xicwzm7i3NF-35" target="rQ-lP0VY4Xicwzm7i3NF-4" edge="1">
          <mxGeometry relative="1" as="geometry" />
        </mxCell>
        <mxCell id="rQ-lP0VY4Xicwzm7i3NF-35" value="A013" style="html=1;strokeWidth=1;shadow=0;dashed=0;shape=mxgraph.ios7.misc.wifi;fillColor=#007AFF;strokeColor=none;buttonText=;strokeColor2=#222222;fontColor=#222222;fontSize=8;verticalLabelPosition=bottom;verticalAlign=top;align=center;sketch=0;" parent="1" vertex="1">
          <mxGeometry x="810" y="390" width="40" height="40" as="geometry" />
        </mxCell>
        <mxCell id="rQ-lP0VY4Xicwzm7i3NF-44" value="" style="edgeStyle=none;rounded=0;orthogonalLoop=1;jettySize=auto;html=1;entryX=0.473;entryY=0.845;entryDx=0;entryDy=0;entryPerimeter=0;" parent="1" source="rQ-lP0VY4Xicwzm7i3NF-36" target="rQ-lP0VY4Xicwzm7i3NF-13" edge="1">
          <mxGeometry relative="1" as="geometry" />
        </mxCell>
        <mxCell id="rQ-lP0VY4Xicwzm7i3NF-36" value="B004" style="html=1;strokeWidth=1;shadow=0;dashed=0;shape=mxgraph.ios7.misc.wifi;fillColor=#007AFF;strokeColor=none;buttonText=;strokeColor2=#222222;fontColor=#222222;fontSize=8;verticalLabelPosition=bottom;verticalAlign=top;align=center;sketch=0;" parent="1" vertex="1">
          <mxGeometry x="962.31" y="400" width="40" height="40" as="geometry" />
        </mxCell>
        <mxCell id="rQ-lP0VY4Xicwzm7i3NF-45" value="" style="edgeStyle=none;rounded=0;orthogonalLoop=1;jettySize=auto;html=1;entryX=0.538;entryY=0.97;entryDx=0;entryDy=0;entryPerimeter=0;" parent="1" source="rQ-lP0VY4Xicwzm7i3NF-37" target="rQ-lP0VY4Xicwzm7i3NF-4" edge="1">
          <mxGeometry relative="1" as="geometry" />
        </mxCell>
        <mxCell id="rQ-lP0VY4Xicwzm7i3NF-37" value="Gang A008" style="html=1;strokeWidth=1;shadow=0;dashed=0;shape=mxgraph.ios7.misc.wifi;fillColor=#007AFF;strokeColor=none;buttonText=;strokeColor2=#222222;fontColor=#222222;fontSize=8;verticalLabelPosition=bottom;verticalAlign=top;align=center;sketch=0;" parent="1" vertex="1">
          <mxGeometry x="660" y="310" width="40" height="40" as="geometry" />
        </mxCell>
        <mxCell id="rQ-lP0VY4Xicwzm7i3NF-42" value="" style="edgeStyle=none;rounded=0;orthogonalLoop=1;jettySize=auto;html=1;" parent="1" source="rQ-lP0VY4Xicwzm7i3NF-38" target="rQ-lP0VY4Xicwzm7i3NF-13" edge="1">
          <mxGeometry relative="1" as="geometry" />
        </mxCell>
        <mxCell id="rQ-lP0VY4Xicwzm7i3NF-38" value="Gang B 1ste verdiep" style="html=1;strokeWidth=1;shadow=0;dashed=0;shape=mxgraph.ios7.misc.wifi;fillColor=#007AFF;strokeColor=none;buttonText=;strokeColor2=#222222;fontColor=#222222;fontSize=8;verticalLabelPosition=bottom;verticalAlign=top;align=center;sketch=0;" parent="1" vertex="1">
          <mxGeometry x="990" y="340" width="40" height="40" as="geometry" />
        </mxCell>
      </root>
    </mxGraphModel>
  </diagram>
</mxfile>
